<svg id="Layer_1" data-name="Layer 1" xmlns="http://www.w3.org/2000/svg" viewBox="0 0 1920 1080"><title>99LogoStudio</title><path d="M666.57,552.87v49.86H524.8a88.47,88.47,0,0,1-39.22-9.14,90.08,90.08,0,0,1-49.86-79.94V323h0a49.86,49.86,0,0,1,49.86,49.86V518.64a39.85,39.85,0,0,0,34.24,34.23Z"/><path d="M816.84,463A139.86,139.86,0,1,1,677,323.1,139.87,139.87,0,0,1,816.84,463ZM767,463a90,90,0,1,0-90,90A90.11,90.11,0,0,0,767,463Z"/><path d="M1093.81,465.8h49.86V607.56a88.47,88.47,0,0,1-9.14,39.22,90.08,90.08,0,0,1-79.94,49.86H864a49.86,49.86,0,0,1,49.86-49.86h145.76a39.85,39.85,0,0,0,34.23-34.24Z"/><path d="M1003.92,317.68A139.86,139.86,0,1,1,864,457.55,139.87,139.87,0,0,1,1003.92,317.68Zm0,49.86a90,90,0,1,0,90,90A90.11,90.11,0,0,0,1003.9,367.54Z"/><path d="M1473,456.5a139.86,139.86,0,1,1-139.87-139.87A139.87,139.87,0,0,1,1473,456.5Zm-49.86,0a90,90,0,1,0-90,90A90.11,90.11,0,0,0,1423.14,456.48Z"/><path d="M484,652v-.33a5.74,5.74,0,0,0-5.75-5.71H452.93a5.71,5.71,0,0,0-5.71,5.71V652a5.71,5.71,0,0,0,5.71,5.71h22.43a19.59,19.59,0,0,1,14.57,6.45,5.32,5.32,0,0,1,.74.85,19.7,19.7,0,0,1-15.31,32.17H455.82a19.71,19.71,0,0,1-19.72-19.72h11.12a8.61,8.61,0,0,0,8.6,8.6h19.53a8.6,8.6,0,1,0,0-17.2H452.93a16.54,16.54,0,0,1-11.64-4.71,14.75,14.75,0,0,1-2.19-2.59,16.65,16.65,0,0,1-3-9.56v-.33a16.85,16.85,0,0,1,16.83-16.86h25.32a16.88,16.88,0,0,1,16.87,16.86V652Z"/><path d="M568,634.83V646H542.33v51.26H531.2V646H505.57V634.83Z"/><path d="M643.79,634.78V666a31.21,31.21,0,0,1-62.42,0V634.78h11.12V666a20.09,20.09,0,0,0,40.18,0V634.78Z"/><path d="M688.38,634.81A31.17,31.17,0,0,1,719.55,666a30.8,30.8,0,0,1-7.38,20.09c-.56.67-1.15,1.33-1.78,2a30.91,30.91,0,0,1-22,9.16H657.17V634.81Zm-20.09,51.26h20.09a20.07,20.07,0,0,0,0-40.14H668.29Z"/><path d="M733,697.18V634.79H744.1v62.39Z"/><path d="M817.65,666a31.19,31.19,0,1,1-31.2-31.2A31.2,31.2,0,0,1,817.65,666Zm-11.12,0a20.07,20.07,0,1,0-20.08,20.08A20.1,20.1,0,0,0,806.53,666Z"/><path d="M1447.69,696.62H1216.82a24.47,24.47,0,0,1,0-48.94h230.87a24.47,24.47,0,0,1,0,48.94Z"/></svg>